<?xml version="1.0" encoding="UTF-8" standalone="no"?>
<!DOCTYPE svg PUBLIC "-//W3C//DTD SVG 1.1//EN" "http://www.w3.org/Graphics/SVG/1.1/DTD/svg11.dtd">
<svg xmlns="http://www.w3.org/2000/svg" version="1.1" viewBox="0 0 512 512">
<g stroke-width="2.00" fill="none" stroke-linecap="butt">
<path stroke="#bb722f" vector-effect="non-scaling-stroke" d="
  M 317.06 440.06
  Q 326.25 435.54 332.00 431.53
  Q 332.51 431.17 333.64 430.74
  C 334.93 430.24 336.37 428.60 337.08 428.09
  C 360.08 411.55 379.29 386.83 383.50 358.25
  Q 386.94 334.91 371.69 317.06
  C 363.53 307.51 348.75 299.87 336.49 297.00
  Q 335.69 296.81 336.27 296.23
  C 339.23 293.27 342.38 290.14 344.33 286.50
  Q 354.95 266.63 343.52 245.66
  A 1.03 1.02 -37.5 0 1 343.68 244.47
  C 366.71 220.48 379.36 190.38 383.03 157.75
  C 384.66 143.26 384.74 128.84 385.82 114.34
  C 387.08 97.37 387.33 79.80 370.70 69.83
  C 357.14 61.71 338.61 66.12 325.28 73.07
  C 318.08 76.83 311.13 82.41 304.57 87.96
  Q 303.12 89.19 301.42 88.33
  Q 297.13 86.16 292.09 83.39
  Q 271.32 71.97 247.74 75.72
  Q 232.79 78.09 218.05 81.57
  A 0.93 0.92 59.0 0 1 217.20 81.35
  C 206.89 71.97 192.78 65.54 178.82 67.66
  C 167.98 69.31 159.08 75.32 154.50 85.24
  C 148.89 97.38 151.60 110.53 152.30 123.38
  A 1.49 1.49 -13.7 0 1 151.43 124.81
  C 139.54 130.18 124.57 137.61 115.95 143.91
  Q 103.70 152.85 97.19 167.94
  Q 80.76 205.98 80.35 246.00
  C 80.00 280.73 92.60 309.81 119.07 333.09
  A 2.83 2.83 -68.7 0 1 120.03 335.28
  C 119.90 339.98 119.70 344.42 121.29 348.74
  Q 126.92 364.03 142.96 369.16
  A 0.32 0.32 30.6 0 1 143.10 369.68
  C 141.94 370.91 140.43 371.80 139.64 373.27
  C 132.45 386.54 127.86 413.54 146.19 421.06
  Q 148.77 422.12 152.55 425.13
  C 159.45 430.63 168.25 435.90 176.06 439.74
  C 219.36 461.08 273.57 461.50 317.06 440.06"
/>
<path stroke="#f5ba7b" vector-effect="non-scaling-stroke" d="
  M 188.20 424.67
  L 193.75 426.71"
/>
<path stroke="#a1591f" vector-effect="non-scaling-stroke" d="
  M 193.75 426.71
  Q 223.35 438.45 255.25 436.96"
/>
<path stroke="#bd9b67" vector-effect="non-scaling-stroke" d="
  M 255.25 436.96
  L 265.00 436.21"
/>
<path stroke="#bb7e43" vector-effect="non-scaling-stroke" d="
  M 265.00 436.21
  Q 277.75 435.00 290.00 431.29"
/>
<path stroke="#a1591f" vector-effect="non-scaling-stroke" d="
  M 290.00 431.29
  C 325.31 422.69 360.31 395.33 367.36 357.82
  Q 371.64 335.04 353.66 321.59
  C 347.62 317.07 335.90 310.87 328.20 312.94
  Q 322.27 314.54 316.68 317.19
  A 0.66 0.66 78.7 0 1 315.74 316.56
  C 316.03 309.77 316.96 303.40 315.25 296.74
  A 1.67 1.66 68.4 0 1 316.05 294.87
  C 329.34 287.59 339.78 274.82 334.89 258.77
  C 333.28 253.50 330.12 248.40 325.87 244.65
  C 323.45 242.52 326.04 241.45 327.52 240.24
  C 367.65 207.32 368.25 155.81 372.36 106.74
  C 373.25 96.11 368.85 81.99 356.50 80.75
  C 339.52 79.04 319.14 93.26 308.12 104.70
  C 280.91 132.93 265.14 172.92 261.30 211.00
  A 0.60 0.56 -88.2 0 1 260.76 211.54
  L 253.08 211.94
  A 0.41 0.41 -87.6 0 1 252.66 211.48
  Q 253.77 201.58 255.02 192.00
  C 255.97 184.81 253.14 178.34 251.30 171.69
  Q 244.93 148.63 234.47 127.11
  C 226.33 110.37 202.97 75.96 180.11 82.59
  C 164.10 87.23 164.44 106.01 165.17 119.25
  Q 167.75 165.79 181.55 210.28
  Q 185.37 222.56 189.76 235.50
  A 0.83 0.81 -31.0 0 1 189.54 236.35
  C 182.56 242.85 176.10 247.32 169.27 255.50
  C 163.03 262.97 160.50 273.93 159.24 283.34
  C 158.82 286.40 158.25 288.27 156.45 290.46
  C 145.63 303.61 135.48 316.33 131.04 333.20
  C 127.24 347.67 137.58 360.79 152.56 360.48
  Q 154.59 360.44 155.51 359.22
  Q 156.90 357.36 158.82 358.67
  Q 172.10 367.74 186.82 367.24
  Q 189.77 367.14 187.74 369.29
  Q 184.29 372.96 179.19 375.53
  A 1.59 1.51 35.1 0 1 178.25 375.67
  Q 172.39 374.71 167.18 371.83
  Q 164.17 370.16 161.31 372.81
  C 151.93 381.50 145.58 388.48 149.50 402.38
  C 150.24 405.01 150.86 407.79 153.68 407.51
  Q 155.99 407.28 156.63 405.04
  C 158.67 397.88 159.51 391.46 165.46 386.42
  A 0.39 0.39 -27.2 0 1 166.09 386.62
  C 167.70 393.04 167.17 396.89 172.47 401.84
  A 0.80 0.72 -53.2 0 1 172.56 402.82
  L 167.13 411.41
  A 1.73 1.59 36.0 0 0 167.57 413.57
  Q 177.12 421.26 188.20 424.67"
/>
<path stroke="#5d535e" vector-effect="non-scaling-stroke" d="
  M 290.00 431.29
  Q 290.82 423.39 293.74 416.00
  C 300.84 398.06 317.33 395.22 333.24 389.15
  C 335.23 388.39 336.54 387.23 335.65 385.02
  A 0.66 0.65 -14.8 0 0 334.95 384.62
  C 329.28 385.45 328.94 386.14 326.13 380.87
  Q 324.01 376.86 323.94 372.33"
/>
<path stroke="#5e5863" vector-effect="non-scaling-stroke" d="
  M 323.94 372.33
  Q 332.84 368.41 341.86 365.90
  Q 343.66 365.40 344.40 363.69
  Q 347.04 357.66 347.41 350.57
  A 0.49 0.48 -88.3 0 0 346.93 350.05
  Q 344.15 350.03 342.28 351.61"
/>
<path stroke="#5f7082" vector-effect="non-scaling-stroke" d="
  M 342.28 351.61
  C 301.10 365.85 268.16 394.21 255.25 436.96"
/>
<path stroke="#978f96" vector-effect="non-scaling-stroke" d="
  M 193.75 426.71
  Q 192.90 417.01 188.20 408.58
  Q 187.59 407.50 187.50 408.74
  Q 186.92 416.52 188.20 424.67"
/>
<path stroke="#7995a6" vector-effect="non-scaling-stroke" d="
  M 320.50 369.96
  C 294.33 387.28 274.07 405.09 265.00 436.21"
/>
<path stroke="#787d86" vector-effect="non-scaling-stroke" d="
  M 323.94 372.33
  Q 323.31 369.65 320.50 369.96"
/>
<path stroke="#7a9aab" vector-effect="non-scaling-stroke" d="
  M 320.50 369.96
  Q 329.13 363.31 332.19 361.69
  Q 338.83 358.16 342.28 351.61"
/>
<path stroke="#f46605" vector-effect="non-scaling-stroke" d="
  M 237.68 106.51
  C 254.45 104.81 269.74 107.51 283.83 116.11
  A 0.53 0.52 -52.0 0 0 284.47 116.03
  Q 286.80 113.68 288.46 110.52
  A 0.60 0.58 -59.2 0 0 288.28 109.77
  C 270.64 97.18 254.63 97.95 233.52 100.66
  A 0.36 0.33 -19.6 0 0 233.24 101.19
  L 236.83 106.22
  A 1.03 0.72 -16.2 0 0 237.68 106.51"
/>
<path stroke="#f86804" vector-effect="non-scaling-stroke" d="
  M 271.69 131.56
  C 263.00 128.79 255.68 127.22 247.40 126.06
  Q 246.43 125.92 246.83 126.81
  Q 254.18 143.53 260.39 160.66
  Q 261.10 162.61 261.89 160.69
  Q 266.84 148.66 272.73 136.50
  C 273.80 134.28 275.29 132.71 271.69 131.56"
/>
<path stroke="#f26503" vector-effect="non-scaling-stroke" d="
  M 125.50 316.68
  A 0.53 0.53 38.8 0 0 126.35 316.59
  C 128.26 313.34 132.41 308.10 128.31 305.19
  Q 125.73 303.35 121.52 296.01
  C 106.22 269.33 106.61 237.28 115.00 207.75
  C 121.82 183.75 134.02 163.68 155.98 150.41
  A 1.08 1.02 73.4 0 0 156.47 149.44
  L 155.99 142.04
  Q 155.92 140.95 155.02 141.55
  C 141.92 150.31 131.11 158.67 121.99 172.72
  Q 110.37 190.61 105.78 211.15
  C 100.72 233.77 99.44 258.35 106.35 280.90
  C 110.52 294.51 115.93 306.11 125.50 316.68"
/>
<path stroke="#f76905" vector-effect="non-scaling-stroke" d="
  M 143.36 266.07
  Q 138.41 271.79 134.70 279.09
  A 0.68 0.68 23.8 0 0 135.07 280.03
  C 138.30 281.21 141.10 287.37 142.87 290.28
  A 0.89 0.89 -28.5 0 0 144.02 290.62
  C 148.38 288.55 149.24 285.46 149.74 280.51
  Q 151.74 260.79 164.64 246.17
  C 168.06 242.29 172.95 238.51 177.23 234.71
  A 2.21 2.21 -32.1 0 0 177.80 232.23
  Q 169.85 212.86 164.68 192.24
  C 164.07 189.82 163.67 186.73 162.41 183.84
  A 0.33 0.33 54.0 0 0 161.86 183.75
  C 153.81 192.66 147.74 207.05 143.94 218.19
  Q 143.21 220.32 145.04 221.64
  Q 147.70 223.54 146.91 225.49
  A 0.93 0.76 4.4 0 1 146.20 225.98
  C 143.29 226.38 143.31 228.01 142.89 230.37
  Q 140.30 244.82 139.76 259.18
  Q 139.71 260.54 140.88 262.01
  L 143.45 265.25
  A 0.72 0.57 -45.3 0 1 143.36 266.07"
/>
<path stroke="#5f5c72" vector-effect="non-scaling-stroke" d="
  M 188.44 96.56
  C 199.89 103.18 209.57 111.98 217.45 122.60
  Q 217.83 123.10 217.79 122.51
  C 217.70 121.33 213.99 116.71 213.12 115.40
  C 207.88 107.47 198.41 97.67 188.69 95.81
  Q 186.37 95.37 188.44 96.56"
/>
<path stroke="#808391" vector-effect="non-scaling-stroke" d="
  M 284.04 199.75
  C 291.47 177.69 300.26 154.11 315.04 134.75"
/>
<path stroke="#606b7a" vector-effect="non-scaling-stroke" d="
  M 315.04 134.75
  Q 321.13 126.70 328.53 120.05"
/>
<path stroke="#5e5863" vector-effect="non-scaling-stroke" d="
  M 328.53 120.05
  Q 336.56 117.74 342.69 122.31
  Q 347.70 126.05 349.14 133.05"
/>
<path stroke="#5f5f6d" vector-effect="non-scaling-stroke" d="
  M 349.14 133.05
  Q 347.69 165.33 331.21 193.00
  C 322.19 208.15 312.28 220.47 302.55 234.07
  Q 301.47 235.59 302.97 234.48
  Q 308.33 230.49 313.66 225.90
  C 340.68 202.63 352.21 170.26 354.71 135.25"
/>
<path stroke="#5e5863" vector-effect="non-scaling-stroke" d="
  M 354.71 135.25
  C 355.62 123.34 355.05 107.70 347.90 97.13"
/>
<path stroke="#9e969c" vector-effect="non-scaling-stroke" d="
  M 347.90 97.13
  C 340.31 95.82 324.44 109.54 319.31 115.06
  C 291.48 145.06 277.24 181.27 271.06 221.50
  A 1.77 1.76 -65.0 0 0 271.64 223.10
  Q 273.67 224.87 275.22 226.17
  C 277.81 228.34 276.93 228.60 277.63 225.11
  Q 280.20 212.27 284.04 199.75"
/>
<path stroke="#b8bfc5" vector-effect="non-scaling-stroke" d="
  M 347.90 97.13
  Q 339.10 103.05 331.75 109.96"
/>
<path stroke="#bbd3dc" vector-effect="non-scaling-stroke" d="
  M 331.75 109.96
  C 321.05 119.55 313.84 130.32 306.11 143.41
  Q 296.14 160.32 290.05 179.10"
/>
<path stroke="#dbebf3" vector-effect="non-scaling-stroke" d="
  M 290.05 179.10
  Q 287.40 184.43 285.92 190.17
  C 285.21 192.93 283.81 196.12 284.04 199.75"
/>
<path stroke="#9dc0d0" vector-effect="non-scaling-stroke" d="
  M 315.04 134.75
  Q 313.52 133.84 312.50 135.75
  C 310.24 140.00 305.67 145.59 302.93 150.71
  Q 295.58 164.48 290.05 179.10"
/>
<path stroke="#798996" vector-effect="non-scaling-stroke" d="
  M 354.71 135.25
  Q 354.50 134.36 353.85 133.84
  A 1.22 0.84 -23.2 0 0 352.95 133.66
  Q 351.38 133.91 349.84 133.51
  A 0.66 0.58 80.3 0 1 349.43 133.18
  Q 348.78 131.93 349.14 133.05"
/>
<path stroke="#7b95a2" vector-effect="non-scaling-stroke" d="
  M 328.53 120.05
  Q 332.48 113.34 337.47 107.21
  Q 337.68 106.95 337.95 106.71
  Q 340.48 104.49 337.82 105.92
  C 335.33 107.26 335.10 109.05 331.75 109.96"
/>
<path stroke="#9e949b" vector-effect="non-scaling-stroke" d="
  M 181.04 129.00
  C 180.79 146.52 183.38 162.93 187.23 180.30
  Q 192.45 203.94 201.99 226.62
  A 0.90 0.80 63.0 0 0 203.20 227.09
  L 207.79 224.25"
/>
<path stroke="#605f6b" vector-effect="non-scaling-stroke" d="
  M 207.79 224.25
  L 223.29 218.43
  A 0.61 0.59 74.9 0 0 223.66 217.76
  C 219.06 192.72 215.08 166.64 206.04 142.75"
/>
<path stroke="#606472" vector-effect="non-scaling-stroke" d="
  M 206.04 142.75
  C 203.53 136.02 191.52 110.98 182.69 111.63
  A 0.67 0.65 -85.9 0 0 182.09 112.17
  Q 180.39 120.50 181.04 129.00"
/>
<path stroke="#7d94a3" vector-effect="non-scaling-stroke" d="
  M 206.04 142.75
  C 204.98 146.65 203.59 141.85 202.73 141.10
  A 1.08 1.08 -21.8 0 0 202.10 140.83
  Q 195.74 140.24 192.39 144.35
  C 190.81 146.28 190.37 147.96 187.29 146.75"
/>
<path stroke="#bbcad3" vector-effect="non-scaling-stroke" d="
  M 187.29 146.75
  C 186.84 144.37 183.45 129.10 181.04 129.00"
/>
<path stroke="#bbc5cc" vector-effect="non-scaling-stroke" d="
  M 187.29 146.75
  C 192.61 173.35 198.26 198.77 207.79 224.25"
/>
<path stroke="#9d4722" vector-effect="non-scaling-stroke" d="
  M 295.16 206.46
  Q 291.56 213.48 288.84 221.24
  Q 287.94 223.81 289.80 221.82
  Q 299.38 211.63 309.63 202.14
  Q 329.23 183.99 335.71 158.00"
/>
<path stroke="#a1581f" vector-effect="non-scaling-stroke" d="
  M 335.71 158.00
  L 336.98 153.06"
/>
<path stroke="#432e3a" vector-effect="non-scaling-stroke" d="
  M 336.98 153.06
  Q 338.60 147.70 337.40 142.22"
/>
<path stroke="#a1581f" vector-effect="non-scaling-stroke" d="
  M 337.40 142.22
  Q 337.02 135.30 333.07 139.48
  C 315.20 158.36 303.91 181.80 295.16 206.46"
/>
<path stroke="#a1581f" vector-effect="non-scaling-stroke" d="
  M 337.40 142.22
  L 336.98 153.06"
/>
<path stroke="#fb7006" vector-effect="non-scaling-stroke" d="
  M 335.71 158.00
  L 333.99 159.54
  A 0.88 0.60 -50.1 0 1 333.22 159.76
  L 330.91 158.87
  A 0.51 0.50 21.2 0 0 330.26 159.15
  C 327.29 166.90 322.78 175.27 318.99 181.77
  Q 310.19 196.88 295.16 206.46"
/>
<path stroke="#9e969c" vector-effect="non-scaling-stroke" d="
  M 236.34 230.31
  Q 233.62 229.66 230.69 230.69
  C 210.52 237.78 196.07 247.87 180.53 261.03
  C 174.66 266.00 171.97 283.62 171.21 290.95
  A 2.32 2.29 -19.8 0 1 170.53 292.37
  C 161.36 301.32 151.89 312.72 147.07 323.61
  A 2.04 2.03 34.4 0 0 147.50 325.88
  Q 151.00 329.34 153.39 329.48"
/>
<path stroke="#636d7c" vector-effect="non-scaling-stroke" d="
  M 153.39 329.48
  C 157.56 328.82 159.83 326.45 163.61 325.19
  C 169.61 323.18 172.58 327.73 168.06 332.14
  Q 164.56 335.55 161.18 339.24"
/>
<path stroke="#a0959c" vector-effect="non-scaling-stroke" d="
  M 161.18 339.24
  C 156.01 342.27 159.67 348.45 163.75 350.04"
/>
<path stroke="#3c4658" vector-effect="non-scaling-stroke" d="
  M 163.75 350.04
  Q 163.60 350.90 164.09 351.65"
/>
<path stroke="#636d7c" vector-effect="non-scaling-stroke" d="
  M 164.09 351.65
  C 177.21 359.81 191.29 354.71 203.00 346.71"
/>
<path stroke="#5f5661" vector-effect="non-scaling-stroke" d="
  M 203.00 346.71
  C 216.06 350.10 232.66 353.14 245.52 350.86
  C 266.71 347.09 287.34 329.98 290.87 308.11
  C 292.46 298.32 289.85 286.97 285.90 277.81
  A 0.70 0.65 65.7 0 0 285.00 277.43
  L 276.25 281.54"
/>
<path stroke="#636d7c" vector-effect="non-scaling-stroke" d="
  M 276.25 281.54
  L 260.32 287.94"
/>
<path stroke="#9e969c" vector-effect="non-scaling-stroke" d="
  M 260.32 287.94
  C 253.02 291.64 246.37 297.30 237.45 295.65"
/>
<path stroke="#636d7c" vector-effect="non-scaling-stroke" d="
  M 237.45 295.65
  Q 228.05 294.08 226.25 294.25
  Q 210.92 295.66 197.38 303.62
  Q 195.88 304.50 196.61 302.92
  C 202.54 290.02 206.40 276.10 216.96 266.07
  C 229.97 253.72 245.02 253.39 262.28 256.86
  Q 264.90 257.38 262.83 259.07
  Q 258.75 262.40 256.81 267.07
  Q 256.17 268.60 257.79 268.24
  C 262.74 267.14 272.63 264.27 275.47 259.74
  C 279.71 252.96 273.80 245.09 268.56 240.94
  Q 254.14 229.51 236.34 230.31"
/>
<path stroke="#bed5de" vector-effect="non-scaling-stroke" d="
  M 237.45 295.65
  Q 244.56 299.87 251.65 296.12
  Q 257.08 293.26 260.32 287.94"
/>
<path stroke="#7f95a2" vector-effect="non-scaling-stroke" d="
  M 276.25 281.54
  C 274.94 306.16 259.82 320.72 235.58 322.06
  C 217.54 323.05 213.35 336.32 203.00 346.71"
/>
<path stroke="#5c859a" vector-effect="non-scaling-stroke" d="
  M 164.09 351.65
  Q 172.08 351.18 176.45 344.92"
/>
<path stroke="#c0d4dd" vector-effect="non-scaling-stroke" d="
  M 176.45 344.92
  Q 177.15 342.98 176.34 342.12
  A 1.21 0.84 -18.8 0 0 175.44 341.86
  Q 169.46 342.52 167.75 343.00
  Q 162.00 344.62 161.18 339.24"
/>
<path stroke="#bed5de" vector-effect="non-scaling-stroke" d="
  M 153.39 329.48
  Q 158.46 313.89 170.52 302.76
  Q 173.73 299.80 177.07 298.23
  A 2.59 2.57 83.7 0 0 178.49 296.44
  C 180.34 287.96 185.11 267.01 191.56 261.81
  Q 209.81 247.12 236.34 230.31"
/>
<path stroke="#99adba" vector-effect="non-scaling-stroke" d="
  M 176.45 344.92
  Q 171.46 350.65 163.75 350.04"
/>
<path stroke="#a0959c" vector-effect="non-scaling-stroke" d="
  M 231.17 269.81
  Q 236.64 270.01 241.96 268.80
  A 0.87 0.84 0.3 0 0 242.59 268.20
  C 243.43 265.16 240.27 265.96 238.66 265.95
  Q 234.04 265.91 230.92 269.20
  Q 230.37 269.78 231.17 269.81"
/>
<path stroke="#9d4e20" vector-effect="non-scaling-stroke" d="
  M 236.26 280.76
  C 241.69 280.79 246.25 284.16 250.56 279.31
  C 253.94 275.52 251.88 273.65 250.81 269.78
  A 1.04 0.65 83.7 0 0 250.26 269.08
  Q 249.90 268.97 249.71 269.30
  Q 249.19 270.22 249.11 271.28
  Q 248.36 281.30 241.08 280.05
  C 237.19 279.39 233.62 278.07 231.81 274.41
  C 228.73 268.18 226.83 279.70 226.74 280.94
  A 0.55 0.55 87.2 0 0 227.39 281.53
  Q 231.98 280.73 236.26 280.76"
/>
<path stroke="#a0959c" vector-effect="non-scaling-stroke" d="
  M 146.10 348.68
  C 151.19 352.65 154.15 346.07 154.02 341.99
  A 1.32 1.19 24.5 0 0 153.65 341.14
  C 149.86 337.36 146.09 334.52 144.33 329.24
  Q 143.92 328.00 143.50 329.24
  C 141.35 335.72 139.65 343.66 146.10 348.68"
/>
<path stroke="#5f5c68" vector-effect="non-scaling-stroke" d="
  M 231.70 407.93
  C 215.98 416.77 201.71 404.46 194.52 391.40
  Q 193.78 390.06 191.98 389.99
  A 0.94 0.94 85.4 0 0 191.02 391.12
  C 195.43 412.29 212.99 420.31 232.86 414.07
  Q 241.41 411.39 246.84 403.62
  C 256.81 389.33 264.64 380.17 278.53 370.54
  C 287.82 364.10 296.89 354.94 295.53 342.73
  Q 295.35 341.12 294.57 342.55
  C 284.94 360.30 267.65 369.14 248.84 374.00
  C 233.00 378.10 220.15 379.04 205.43 372.50
  A 0.46 0.45 -80.5 0 0 204.79 372.96
  C 206.10 388.56 214.87 403.03 231.36 405.93
  Q 234.33 406.45 231.70 407.93"
/>
</g>
<path fill="#776059" d="
  M 0.00 0.00
  L 512.00 0.00
  L 512.00 512.00
  L 0.00 512.00
  L 0.00 0.00
  Z
  M 317.06 440.06
  Q 326.25 435.54 332.00 431.53
  Q 332.51 431.17 333.64 430.74
  C 334.93 430.24 336.37 428.60 337.08 428.09
  C 360.08 411.55 379.29 386.83 383.50 358.25
  Q 386.94 334.91 371.69 317.06
  C 363.53 307.51 348.75 299.87 336.49 297.00
  Q 335.69 296.81 336.27 296.23
  C 339.23 293.27 342.38 290.14 344.33 286.50
  Q 354.95 266.63 343.52 245.66
  A 1.03 1.02 -37.5 0 1 343.68 244.47
  C 366.71 220.48 379.36 190.38 383.03 157.75
  C 384.66 143.26 384.74 128.84 385.82 114.34
  C 387.08 97.37 387.33 79.80 370.70 69.83
  C 357.14 61.71 338.61 66.12 325.28 73.07
  C 318.08 76.83 311.13 82.41 304.57 87.96
  Q 303.12 89.19 301.42 88.33
  Q 297.13 86.16 292.09 83.39
  Q 271.32 71.97 247.74 75.72
  Q 232.79 78.09 218.05 81.57
  A 0.93 0.92 59.0 0 1 217.20 81.35
  C 206.89 71.97 192.78 65.54 178.82 67.66
  C 167.98 69.31 159.08 75.32 154.50 85.24
  C 148.89 97.38 151.60 110.53 152.30 123.38
  A 1.49 1.49 -13.7 0 1 151.43 124.81
  C 139.54 130.18 124.57 137.61 115.95 143.91
  Q 103.70 152.85 97.19 167.94
  Q 80.76 205.98 80.35 246.00
  C 80.00 280.73 92.60 309.81 119.07 333.09
  A 2.83 2.83 -68.7 0 1 120.03 335.28
  C 119.90 339.98 119.70 344.42 121.29 348.74
  Q 126.92 364.03 142.96 369.16
  A 0.32 0.32 30.6 0 1 143.10 369.68
  C 141.94 370.91 140.43 371.80 139.64 373.27
  C 132.45 386.54 127.86 413.54 146.19 421.06
  Q 148.77 422.12 152.55 425.13
  C 159.45 430.63 168.25 435.90 176.06 439.74
  C 219.36 461.08 273.57 461.50 317.06 440.06
  Z"
/>
<path fill="#ff8404" d="
  M 317.06 440.06
  C 273.57 461.50 219.36 461.08 176.06 439.74
  C 168.25 435.90 159.45 430.63 152.55 425.13
  Q 148.77 422.12 146.19 421.06
  C 127.86 413.54 132.45 386.54 139.64 373.27
  C 140.43 371.80 141.94 370.91 143.10 369.68
  A 0.32 0.32 30.6 0 0 142.96 369.16
  Q 126.92 364.03 121.29 348.74
  C 119.70 344.42 119.90 339.98 120.03 335.28
  A 2.83 2.83 -68.7 0 0 119.07 333.09
  C 92.60 309.81 80.00 280.73 80.35 246.00
  Q 80.76 205.98 97.19 167.94
  Q 103.70 152.85 115.95 143.91
  C 124.57 137.61 139.54 130.18 151.43 124.81
  A 1.49 1.49 -13.7 0 0 152.30 123.38
  C 151.60 110.53 148.89 97.38 154.50 85.24
  C 159.08 75.32 167.98 69.31 178.82 67.66
  C 192.78 65.54 206.89 71.97 217.20 81.35
  A 0.93 0.92 59.0 0 0 218.05 81.57
  Q 232.79 78.09 247.74 75.72
  Q 271.32 71.97 292.09 83.39
  Q 297.13 86.16 301.42 88.33
  Q 303.12 89.19 304.57 87.96
  C 311.13 82.41 318.08 76.83 325.28 73.07
  C 338.61 66.12 357.14 61.71 370.70 69.83
  C 387.33 79.80 387.08 97.37 385.82 114.34
  C 384.74 128.84 384.66 143.26 383.03 157.75
  C 379.36 190.38 366.71 220.48 343.68 244.47
  A 1.03 1.02 -37.5 0 0 343.52 245.66
  Q 354.95 266.63 344.33 286.50
  C 342.38 290.14 339.23 293.27 336.27 296.23
  Q 335.69 296.81 336.49 297.00
  C 348.75 299.87 363.53 307.51 371.69 317.06
  Q 386.94 334.91 383.50 358.25
  C 379.29 386.83 360.08 411.55 337.08 428.09
  C 336.37 428.60 334.93 430.24 333.64 430.74
  Q 332.51 431.17 332.00 431.53
  Q 326.25 435.54 317.06 440.06
  Z
  M 188.20 424.67
  L 193.75 426.71
  Q 223.35 438.45 255.25 436.96
  L 265.00 436.21
  Q 277.75 435.00 290.00 431.29
  C 325.31 422.69 360.31 395.33 367.36 357.82
  Q 371.64 335.04 353.66 321.59
  C 347.62 317.07 335.90 310.87 328.20 312.94
  Q 322.27 314.54 316.68 317.19
  A 0.66 0.66 78.7 0 1 315.74 316.56
  C 316.03 309.77 316.96 303.40 315.25 296.74
  A 1.67 1.66 68.4 0 1 316.05 294.87
  C 329.34 287.59 339.78 274.82 334.89 258.77
  C 333.28 253.50 330.12 248.40 325.87 244.65
  C 323.45 242.52 326.04 241.45 327.52 240.24
  C 367.65 207.32 368.25 155.81 372.36 106.74
  C 373.25 96.11 368.85 81.99 356.50 80.75
  C 339.52 79.04 319.14 93.26 308.12 104.70
  C 280.91 132.93 265.14 172.92 261.30 211.00
  A 0.60 0.56 -88.2 0 1 260.76 211.54
  L 253.08 211.94
  A 0.41 0.41 -87.6 0 1 252.66 211.48
  Q 253.77 201.58 255.02 192.00
  C 255.97 184.81 253.14 178.34 251.30 171.69
  Q 244.93 148.63 234.47 127.11
  C 226.33 110.37 202.97 75.96 180.11 82.59
  C 164.10 87.23 164.44 106.01 165.17 119.25
  Q 167.75 165.79 181.55 210.28
  Q 185.37 222.56 189.76 235.50
  A 0.83 0.81 -31.0 0 1 189.54 236.35
  C 182.56 242.85 176.10 247.32 169.27 255.50
  C 163.03 262.97 160.50 273.93 159.24 283.34
  C 158.82 286.40 158.25 288.27 156.45 290.46
  C 145.63 303.61 135.48 316.33 131.04 333.20
  C 127.24 347.67 137.58 360.79 152.56 360.48
  Q 154.59 360.44 155.51 359.22
  Q 156.90 357.36 158.82 358.67
  Q 172.10 367.74 186.82 367.24
  Q 189.77 367.14 187.74 369.29
  Q 184.29 372.96 179.19 375.53
  A 1.59 1.51 35.1 0 1 178.25 375.67
  Q 172.39 374.71 167.18 371.83
  Q 164.17 370.16 161.31 372.81
  C 151.93 381.50 145.58 388.48 149.50 402.38
  C 150.24 405.01 150.86 407.79 153.68 407.51
  Q 155.99 407.28 156.63 405.04
  C 158.67 397.88 159.51 391.46 165.46 386.42
  A 0.39 0.39 -27.2 0 1 166.09 386.62
  C 167.70 393.04 167.17 396.89 172.47 401.84
  A 0.80 0.72 -53.2 0 1 172.56 402.82
  L 167.13 411.41
  A 1.73 1.59 36.0 0 0 167.57 413.57
  Q 177.12 421.26 188.20 424.67
  Z
  M 237.68 106.51
  C 254.45 104.81 269.74 107.51 283.83 116.11
  A 0.53 0.52 -52.0 0 0 284.47 116.03
  Q 286.80 113.68 288.46 110.52
  A 0.60 0.58 -59.2 0 0 288.28 109.77
  C 270.64 97.18 254.63 97.95 233.52 100.66
  A 0.36 0.33 -19.6 0 0 233.24 101.19
  L 236.83 106.22
  A 1.03 0.72 -16.2 0 0 237.68 106.51
  Z
  M 271.69 131.56
  C 263.00 128.79 255.68 127.22 247.40 126.06
  Q 246.43 125.92 246.83 126.81
  Q 254.18 143.53 260.39 160.66
  Q 261.10 162.61 261.89 160.69
  Q 266.84 148.66 272.73 136.50
  C 273.80 134.28 275.29 132.71 271.69 131.56
  Z
  M 125.50 316.68
  A 0.53 0.53 38.8 0 0 126.35 316.59
  C 128.26 313.34 132.41 308.10 128.31 305.19
  Q 125.73 303.35 121.52 296.01
  C 106.22 269.33 106.61 237.28 115.00 207.75
  C 121.82 183.75 134.02 163.68 155.98 150.41
  A 1.08 1.02 73.4 0 0 156.47 149.44
  L 155.99 142.04
  Q 155.92 140.95 155.02 141.55
  C 141.92 150.31 131.11 158.67 121.99 172.72
  Q 110.37 190.61 105.78 211.15
  C 100.72 233.77 99.44 258.35 106.35 280.90
  C 110.52 294.51 115.93 306.11 125.50 316.68
  Z
  M 143.36 266.07
  Q 138.41 271.79 134.70 279.09
  A 0.68 0.68 23.8 0 0 135.07 280.03
  C 138.30 281.21 141.10 287.37 142.87 290.28
  A 0.89 0.89 -28.5 0 0 144.02 290.62
  C 148.38 288.55 149.24 285.46 149.74 280.51
  Q 151.74 260.79 164.64 246.17
  C 168.06 242.29 172.95 238.51 177.23 234.71
  A 2.21 2.21 -32.1 0 0 177.80 232.23
  Q 169.85 212.86 164.68 192.24
  C 164.07 189.82 163.67 186.73 162.41 183.84
  A 0.33 0.33 54.0 0 0 161.86 183.75
  C 153.81 192.66 147.74 207.05 143.94 218.19
  Q 143.21 220.32 145.04 221.64
  Q 147.70 223.54 146.91 225.49
  A 0.93 0.76 4.4 0 1 146.20 225.98
  C 143.29 226.38 143.31 228.01 142.89 230.37
  Q 140.30 244.82 139.76 259.18
  Q 139.71 260.54 140.88 262.01
  L 143.45 265.25
  A 0.72 0.57 -45.3 0 1 143.36 266.07
  Z"
/>
<path fill="#432e3a" d="
  M 290.00 431.29
  Q 290.82 423.39 293.74 416.00
  C 300.84 398.06 317.33 395.22 333.24 389.15
  C 335.23 388.39 336.54 387.23 335.65 385.02
  A 0.66 0.65 -14.8 0 0 334.95 384.62
  C 329.28 385.45 328.94 386.14 326.13 380.87
  Q 324.01 376.86 323.94 372.33
  Q 332.84 368.41 341.86 365.90
  Q 343.66 365.40 344.40 363.69
  Q 347.04 357.66 347.41 350.57
  A 0.49 0.48 -88.3 0 0 346.93 350.05
  Q 344.15 350.03 342.28 351.61
  C 301.10 365.85 268.16 394.21 255.25 436.96
  Q 223.35 438.45 193.75 426.71
  Q 192.90 417.01 188.20 408.58
  Q 187.59 407.50 187.50 408.74
  Q 186.92 416.52 188.20 424.67
  Q 177.12 421.26 167.57 413.57
  A 1.73 1.59 36.0 0 1 167.13 411.41
  L 172.56 402.82
  A 0.80 0.72 -53.2 0 0 172.47 401.84
  C 167.17 396.89 167.70 393.04 166.09 386.62
  A 0.39 0.39 -27.2 0 0 165.46 386.42
  C 159.51 391.46 158.67 397.88 156.63 405.04
  Q 155.99 407.28 153.68 407.51
  C 150.86 407.79 150.24 405.01 149.50 402.38
  C 145.58 388.48 151.93 381.50 161.31 372.81
  Q 164.17 370.16 167.18 371.83
  Q 172.39 374.71 178.25 375.67
  A 1.59 1.51 35.1 0 0 179.19 375.53
  Q 184.29 372.96 187.74 369.29
  Q 189.77 367.14 186.82 367.24
  Q 172.10 367.74 158.82 358.67
  Q 156.90 357.36 155.51 359.22
  Q 154.59 360.44 152.56 360.48
  C 137.58 360.79 127.24 347.67 131.04 333.20
  C 135.48 316.33 145.63 303.61 156.45 290.46
  C 158.25 288.27 158.82 286.40 159.24 283.34
  C 160.50 273.93 163.03 262.97 169.27 255.50
  C 176.10 247.32 182.56 242.85 189.54 236.35
  A 0.83 0.81 -31.0 0 0 189.76 235.50
  Q 185.37 222.56 181.55 210.28
  Q 167.75 165.79 165.17 119.25
  C 164.44 106.01 164.10 87.23 180.11 82.59
  C 202.97 75.96 226.33 110.37 234.47 127.11
  Q 244.93 148.63 251.30 171.69
  C 253.14 178.34 255.97 184.81 255.02 192.00
  Q 253.77 201.58 252.66 211.48
  A 0.41 0.41 -87.6 0 0 253.08 211.94
  L 260.76 211.54
  A 0.60 0.56 -88.2 0 0 261.30 211.00
  C 265.14 172.92 280.91 132.93 308.12 104.70
  C 319.14 93.26 339.52 79.04 356.50 80.75
  C 368.85 81.99 373.25 96.11 372.36 106.74
  C 368.25 155.81 367.65 207.32 327.52 240.24
  C 326.04 241.45 323.45 242.52 325.87 244.65
  C 330.12 248.40 333.28 253.50 334.89 258.77
  C 339.78 274.82 329.34 287.59 316.05 294.87
  A 1.67 1.66 68.4 0 0 315.25 296.74
  C 316.96 303.40 316.03 309.77 315.74 316.56
  A 0.66 0.66 78.7 0 0 316.68 317.19
  Q 322.27 314.54 328.20 312.94
  C 335.90 310.87 347.62 317.07 353.66 321.59
  Q 371.64 335.04 367.36 357.82
  C 360.31 395.33 325.31 422.69 290.00 431.29
  Z
  M 188.44 96.56
  C 199.89 103.18 209.57 111.98 217.45 122.60
  Q 217.83 123.10 217.79 122.51
  C 217.70 121.33 213.99 116.71 213.12 115.40
  C 207.88 107.47 198.41 97.67 188.69 95.81
  Q 186.37 95.37 188.44 96.56
  Z
  M 284.04 199.75
  C 291.47 177.69 300.26 154.11 315.04 134.75
  Q 321.13 126.70 328.53 120.05
  Q 336.56 117.74 342.69 122.31
  Q 347.70 126.05 349.14 133.05
  Q 347.69 165.33 331.21 193.00
  C 322.19 208.15 312.28 220.47 302.55 234.07
  Q 301.47 235.59 302.97 234.48
  Q 308.33 230.49 313.66 225.90
  C 340.68 202.63 352.21 170.26 354.71 135.25
  C 355.62 123.34 355.05 107.70 347.90 97.13
  C 340.31 95.82 324.44 109.54 319.31 115.06
  C 291.48 145.06 277.24 181.27 271.06 221.50
  A 1.77 1.76 -65.0 0 0 271.64 223.10
  Q 273.67 224.87 275.22 226.17
  C 277.81 228.34 276.93 228.60 277.63 225.11
  Q 280.20 212.27 284.04 199.75
  Z
  M 181.04 129.00
  C 180.79 146.52 183.38 162.93 187.23 180.30
  Q 192.45 203.94 201.99 226.62
  A 0.90 0.80 63.0 0 0 203.20 227.09
  L 207.79 224.25
  L 223.29 218.43
  A 0.61 0.59 74.9 0 0 223.66 217.76
  C 219.06 192.72 215.08 166.64 206.04 142.75
  C 203.53 136.02 191.52 110.98 182.69 111.63
  A 0.67 0.65 -85.9 0 0 182.09 112.17
  Q 180.39 120.50 181.04 129.00
  Z
  M 295.16 206.46
  Q 291.56 213.48 288.84 221.24
  Q 287.94 223.81 289.80 221.82
  Q 299.38 211.63 309.63 202.14
  Q 329.23 183.99 335.71 158.00
  L 336.98 153.06
  Q 338.60 147.70 337.40 142.22
  Q 337.02 135.30 333.07 139.48
  C 315.20 158.36 303.91 181.80 295.16 206.46
  Z
  M 236.34 230.31
  Q 233.62 229.66 230.69 230.69
  C 210.52 237.78 196.07 247.87 180.53 261.03
  C 174.66 266.00 171.97 283.62 171.21 290.95
  A 2.32 2.29 -19.8 0 1 170.53 292.37
  C 161.36 301.32 151.89 312.72 147.07 323.61
  A 2.04 2.03 34.4 0 0 147.50 325.88
  Q 151.00 329.34 153.39 329.48
  C 157.56 328.82 159.83 326.45 163.61 325.19
  C 169.61 323.18 172.58 327.73 168.06 332.14
  Q 164.56 335.55 161.18 339.24
  C 156.01 342.27 159.67 348.45 163.75 350.04
  Q 163.60 350.90 164.09 351.65
  C 177.21 359.81 191.29 354.71 203.00 346.71
  C 216.06 350.10 232.66 353.14 245.52 350.86
  C 266.71 347.09 287.34 329.98 290.87 308.11
  C 292.46 298.32 289.85 286.97 285.90 277.81
  A 0.70 0.65 65.7 0 0 285.00 277.43
  L 276.25 281.54
  L 260.32 287.94
  C 253.02 291.64 246.37 297.30 237.45 295.65
  Q 228.05 294.08 226.25 294.25
  Q 210.92 295.66 197.38 303.62
  Q 195.88 304.50 196.61 302.92
  C 202.54 290.02 206.40 276.10 216.96 266.07
  C 229.97 253.72 245.02 253.39 262.28 256.86
  Q 264.90 257.38 262.83 259.07
  Q 258.75 262.40 256.81 267.07
  Q 256.17 268.60 257.79 268.24
  C 262.74 267.14 272.63 264.27 275.47 259.74
  C 279.71 252.96 273.80 245.09 268.56 240.94
  Q 254.14 229.51 236.34 230.31
  Z
  M 231.17 269.81
  Q 236.64 270.01 241.96 268.80
  A 0.87 0.84 0.3 0 0 242.59 268.20
  C 243.43 265.16 240.27 265.96 238.66 265.95
  Q 234.04 265.91 230.92 269.20
  Q 230.37 269.78 231.17 269.81
  Z
  M 236.26 280.76
  C 241.69 280.79 246.25 284.16 250.56 279.31
  C 253.94 275.52 251.88 273.65 250.81 269.78
  A 1.04 0.65 83.7 0 0 250.26 269.08
  Q 249.90 268.97 249.71 269.30
  Q 249.19 270.22 249.11 271.28
  Q 248.36 281.30 241.08 280.05
  C 237.19 279.39 233.62 278.07 231.81 274.41
  C 228.73 268.18 226.83 279.70 226.74 280.94
  A 0.55 0.55 87.2 0 0 227.39 281.53
  Q 231.98 280.73 236.26 280.76
  Z
  M 146.10 348.68
  C 151.19 352.65 154.15 346.07 154.02 341.99
  A 1.32 1.19 24.5 0 0 153.65 341.14
  C 149.86 337.36 146.09 334.52 144.33 329.24
  Q 143.92 328.00 143.50 329.24
  C 141.35 335.72 139.65 343.66 146.10 348.68
  Z
  M 231.70 407.93
  C 215.98 416.77 201.71 404.46 194.52 391.40
  Q 193.78 390.06 191.98 389.99
  A 0.94 0.94 85.4 0 0 191.02 391.12
  C 195.43 412.29 212.99 420.31 232.86 414.07
  Q 241.41 411.39 246.84 403.62
  C 256.81 389.33 264.64 380.17 278.53 370.54
  C 287.82 364.10 296.89 354.94 295.53 342.73
  Q 295.35 341.12 294.57 342.55
  C 284.94 360.30 267.65 369.14 248.84 374.00
  C 233.00 378.10 220.15 379.04 205.43 372.50
  A 0.46 0.45 -80.5 0 0 204.79 372.96
  C 206.10 388.56 214.87 403.03 231.36 405.93
  Q 234.33 406.45 231.70 407.93
  Z"
/>
<path fill="#7a89aa" d="
  M 217.45 122.60
  C 209.57 111.98 199.89 103.18 188.44 96.56
  Q 186.37 95.37 188.69 95.81
  C 198.41 97.67 207.88 107.47 213.12 115.40
  C 213.99 116.71 217.70 121.33 217.79 122.51
  Q 217.83 123.10 217.45 122.60
  Z"
/>
<path fill="#f8fdfe" d="
  M 347.90 97.13
  Q 339.10 103.05 331.75 109.96
  C 321.05 119.55 313.84 130.32 306.11 143.41
  Q 296.14 160.32 290.05 179.10
  Q 287.40 184.43 285.92 190.17
  C 285.21 192.93 283.81 196.12 284.04 199.75
  Q 280.20 212.27 277.63 225.11
  C 276.93 228.60 277.81 228.34 275.22 226.17
  Q 273.67 224.87 271.64 223.10
  A 1.77 1.76 -65.0 0 1 271.06 221.50
  C 277.24 181.27 291.48 145.06 319.31 115.06
  C 324.44 109.54 340.31 95.82 347.90 97.13
  Z"
/>
<path fill="#78818b" d="
  M 347.90 97.13
  C 355.05 107.70 355.62 123.34 354.71 135.25
  Q 354.50 134.36 353.85 133.84
  A 1.22 0.84 -23.2 0 0 352.95 133.66
  Q 351.38 133.91 349.84 133.51
  A 0.66 0.58 80.3 0 1 349.43 133.18
  Q 348.78 131.93 349.14 133.05
  Q 347.70 126.05 342.69 122.31
  Q 336.56 117.74 328.53 120.05
  Q 332.48 113.34 337.47 107.21
  Q 337.68 106.95 337.95 106.71
  Q 340.48 104.49 337.82 105.92
  C 335.33 107.26 335.10 109.05 331.75 109.96
  Q 339.10 103.05 347.90 97.13
  Z"
/>
<path fill="#e84705" d="
  M 236.83 106.22
  L 233.24 101.19
  A 0.36 0.33 -19.6 0 1 233.52 100.66
  C 254.63 97.95 270.64 97.18 288.28 109.77
  A 0.60 0.58 -59.2 0 1 288.46 110.52
  Q 286.80 113.68 284.47 116.03
  A 0.53 0.52 -52.0 0 1 283.83 116.11
  C 269.74 107.51 254.45 104.81 237.68 106.51
  A 1.03 0.72 -16.2 0 1 236.83 106.22
  Z"
/>
<path fill="#7da8b9" d="
  M 328.53 120.05
  Q 321.13 126.70 315.04 134.75
  Q 313.52 133.84 312.50 135.75
  C 310.24 140.00 305.67 145.59 302.93 150.71
  Q 295.58 164.48 290.05 179.10
  Q 296.14 160.32 306.11 143.41
  C 313.84 130.32 321.05 119.55 331.75 109.96
  C 335.10 109.05 335.33 107.26 337.82 105.92
  Q 340.48 104.49 337.95 106.71
  Q 337.68 106.95 337.47 107.21
  Q 332.48 113.34 328.53 120.05
  Z"
/>
<path fill="#7d99aa" d="
  M 206.04 142.75
  C 204.98 146.65 203.59 141.85 202.73 141.10
  A 1.08 1.08 -21.8 0 0 202.10 140.83
  Q 195.74 140.24 192.39 144.35
  C 190.81 146.28 190.37 147.96 187.29 146.75
  C 186.84 144.37 183.45 129.10 181.04 129.00
  Q 180.39 120.50 182.09 112.17
  A 0.67 0.65 -85.9 0 1 182.69 111.63
  C 191.52 110.98 203.53 136.02 206.04 142.75
  Z"
/>
<path fill="#f04b04" d="
  M 247.40 126.06
  C 255.68 127.22 263.00 128.79 271.69 131.56
  C 275.29 132.71 273.80 134.28 272.73 136.50
  Q 266.84 148.66 261.89 160.69
  Q 261.10 162.61 260.39 160.66
  Q 254.18 143.53 246.83 126.81
  Q 246.43 125.92 247.40 126.06
  Z"
/>
<path fill="#f8fafc" d="
  M 181.04 129.00
  C 183.45 129.10 186.84 144.37 187.29 146.75
  C 192.61 173.35 198.26 198.77 207.79 224.25
  L 203.20 227.09
  A 0.90 0.80 63.0 0 1 201.99 226.62
  Q 192.45 203.94 187.23 180.30
  C 183.38 162.93 180.79 146.52 181.04 129.00
  Z"
/>
<path fill="#7a90a0" d="
  M 354.71 135.25
  C 352.21 170.26 340.68 202.63 313.66 225.90
  Q 308.33 230.49 302.97 234.48
  Q 301.47 235.59 302.55 234.07
  C 312.28 220.47 322.19 208.15 331.21 193.00
  Q 347.69 165.33 349.14 133.05
  Q 348.78 131.93 349.43 133.18
  A 0.66 0.58 80.3 0 0 349.84 133.51
  Q 351.38 133.91 352.95 133.66
  A 1.22 0.84 -23.2 0 1 353.85 133.84
  Q 354.50 134.36 354.71 135.25
  Z"
/>
<path fill="#bdd8e7" d="
  M 315.04 134.75
  C 300.26 154.11 291.47 177.69 284.04 199.75
  C 283.81 196.12 285.21 192.93 285.92 190.17
  Q 287.40 184.43 290.05 179.10
  Q 295.58 164.48 302.93 150.71
  C 305.67 145.59 310.24 140.00 312.50 135.75
  Q 313.52 133.84 315.04 134.75
  Z"
/>
<path fill="#ff8103" d="
  M 337.40 142.22
  L 336.98 153.06
  L 335.71 158.00
  L 333.99 159.54
  A 0.88 0.60 -50.1 0 1 333.22 159.76
  L 330.91 158.87
  A 0.51 0.50 21.2 0 0 330.26 159.15
  C 327.29 166.90 322.78 175.27 318.99 181.77
  Q 310.19 196.88 295.16 206.46
  C 303.91 181.80 315.20 158.36 333.07 139.48
  Q 337.02 135.30 337.40 142.22
  Z"
/>
<path fill="#7d8f9b" d="
  M 206.04 142.75
  C 215.08 166.64 219.06 192.72 223.66 217.76
  A 0.61 0.59 74.9 0 1 223.29 218.43
  L 207.79 224.25
  C 198.26 198.77 192.61 173.35 187.29 146.75
  C 190.37 147.96 190.81 146.28 192.39 144.35
  Q 195.74 140.24 202.10 140.83
  A 1.08 1.08 -21.3 0 1 202.73 141.10
  C 203.59 141.85 204.98 146.65 206.04 142.75
  Z"
/>
<path fill="#e44602" d="
  M 125.50 316.68
  C 115.93 306.11 110.52 294.51 106.35 280.90
  C 99.44 258.35 100.72 233.77 105.78 211.15
  Q 110.37 190.61 121.99 172.72
  C 131.11 158.67 141.92 150.31 155.02 141.55
  Q 155.92 140.95 155.99 142.04
  L 156.47 149.44
  A 1.08 1.02 73.4 0 1 155.98 150.41
  C 134.02 163.68 121.82 183.75 115.00 207.75
  C 106.61 237.28 106.22 269.33 121.52 296.01
  Q 125.73 303.35 128.31 305.19
  C 132.41 308.10 128.26 313.34 126.35 316.59
  A 0.53 0.53 38.8 0 1 125.50 316.68
  Z"
/>
<path fill="#432e3a" d="
  M 337.40 142.22
  Q 338.60 147.70 336.98 153.06
  L 337.40 142.22
  Z"
/>
<path fill="#f65f09" d="
  M 335.71 158.00
  Q 329.23 183.99 309.63 202.14
  Q 299.38 211.63 289.80 221.82
  Q 287.94 223.81 288.84 221.24
  Q 291.56 213.48 295.16 206.46
  Q 310.19 196.88 318.99 181.77
  C 322.78 175.27 327.29 166.90 330.26 159.15
  A 0.51 0.50 21.2 0 1 330.91 158.87
  L 333.22 159.76
  A 0.88 0.60 -50.1 0 0 333.99 159.54
  L 335.71 158.00
  Z"
/>
<path fill="#ef4e05" d="
  M 143.45 265.25
  L 140.88 262.01
  Q 139.71 260.54 139.76 259.18
  Q 140.30 244.82 142.89 230.37
  C 143.31 228.01 143.29 226.38 146.20 225.98
  A 0.93 0.76 4.4 0 0 146.91 225.49
  Q 147.70 223.54 145.04 221.64
  Q 143.21 220.32 143.94 218.19
  C 147.74 207.05 153.81 192.66 161.86 183.75
  A 0.33 0.33 54.0 0 1 162.41 183.84
  C 163.67 186.73 164.07 189.82 164.68 192.24
  Q 169.85 212.86 177.80 232.23
  A 2.21 2.21 -32.1 0 1 177.23 234.71
  C 172.95 238.51 168.06 242.29 164.64 246.17
  Q 151.74 260.79 149.74 280.51
  C 149.24 285.46 148.38 288.55 144.02 290.62
  A 0.89 0.89 -28.5 0 1 142.87 290.28
  C 141.10 287.37 138.30 281.21 135.07 280.03
  A 0.68 0.68 23.8 0 1 134.70 279.09
  Q 138.41 271.79 143.36 266.07
  A 0.72 0.57 -45.3 0 0 143.45 265.25
  Z"
/>
<path fill="#83acbd" d="
  M 237.45 295.65
  Q 244.56 299.87 251.65 296.12
  Q 257.08 293.26 260.32 287.94
  L 276.25 281.54
  C 274.94 306.16 259.82 320.72 235.58 322.06
  C 217.54 323.05 213.35 336.32 203.00 346.71
  C 191.29 354.71 177.21 359.81 164.09 351.65
  Q 172.08 351.18 176.45 344.92
  Q 177.15 342.98 176.34 342.12
  A 1.21 0.84 -18.8 0 0 175.44 341.86
  Q 169.46 342.52 167.75 343.00
  Q 162.00 344.62 161.18 339.24
  Q 164.56 335.55 168.06 332.14
  C 172.58 327.73 169.61 323.18 163.61 325.19
  C 159.83 326.45 157.56 328.82 153.39 329.48
  Q 158.46 313.89 170.52 302.76
  Q 173.73 299.80 177.07 298.23
  A 2.59 2.57 83.7 0 0 178.49 296.44
  C 180.34 287.96 185.11 267.01 191.56 261.81
  Q 209.81 247.12 236.34 230.31
  Q 254.14 229.51 268.56 240.94
  C 273.80 245.09 279.71 252.96 275.47 259.74
  C 272.63 264.27 262.74 267.14 257.79 268.24
  Q 256.17 268.60 256.81 267.07
  Q 258.75 262.40 262.83 259.07
  Q 264.90 257.38 262.28 256.86
  C 245.02 253.39 229.97 253.72 216.96 266.07
  C 206.40 276.10 202.54 290.02 196.61 302.92
  Q 195.88 304.50 197.38 303.62
  Q 210.92 295.66 226.25 294.25
  Q 228.05 294.08 237.45 295.65
  Z"
/>
<path fill="#f8fdfe" d="
  M 236.34 230.31
  Q 209.81 247.12 191.56 261.81
  C 185.11 267.01 180.34 287.96 178.49 296.44
  A 2.59 2.57 83.7 0 1 177.07 298.23
  Q 173.73 299.80 170.52 302.76
  Q 158.46 313.89 153.39 329.48
  Q 151.00 329.34 147.50 325.88
  A 2.04 2.03 34.4 0 1 147.07 323.61
  C 151.89 312.72 161.36 301.32 170.53 292.37
  A 2.32 2.29 -19.8 0 0 171.21 290.95
  C 171.97 283.62 174.66 266.00 180.53 261.03
  C 196.07 247.87 210.52 237.78 230.69 230.69
  Q 233.62 229.66 236.34 230.31
  Z"
/>
<path fill="#fdfcfd" d="
  M 231.17 269.81
  Q 230.37 269.78 230.92 269.20
  Q 234.04 265.91 238.66 265.95
  C 240.27 265.96 243.43 265.16 242.59 268.20
  A 0.87 0.84 0.3 0 1 241.96 268.80
  Q 236.64 270.01 231.17 269.81
  Z"
/>
<path fill="#f66d06" d="
  M 236.26 280.76
  Q 231.98 280.73 227.39 281.53
  A 0.55 0.55 87.2 0 1 226.74 280.94
  C 226.83 279.70 228.73 268.18 231.81 274.41
  C 233.62 278.07 237.19 279.39 241.08 280.05
  Q 248.36 281.30 249.11 271.28
  Q 249.19 270.22 249.71 269.30
  Q 249.90 268.97 250.26 269.08
  A 1.04 0.65 83.7 0 1 250.81 269.78
  C 251.88 273.65 253.94 275.52 250.56 279.31
  C 246.25 284.16 241.69 280.79 236.26 280.76
  Z"
/>
<path fill="#7a7e87" d="
  M 203.00 346.71
  C 213.35 336.32 217.54 323.05 235.58 322.06
  C 259.82 320.72 274.94 306.16 276.25 281.54
  L 285.00 277.43
  A 0.70 0.65 65.7 0 1 285.90 277.81
  C 289.85 286.97 292.46 298.32 290.87 308.11
  C 287.34 329.98 266.71 347.09 245.52 350.86
  C 232.66 353.14 216.06 350.10 203.00 346.71
  Z"
/>
<path fill="#f8fdfe" d="
  M 260.32 287.94
  Q 257.08 293.26 251.65 296.12
  Q 244.56 299.87 237.45 295.65
  C 246.37 297.30 253.02 291.64 260.32 287.94
  Z"
/>
<path fill="#fdfcfd" d="
  M 146.10 348.68
  C 139.65 343.66 141.35 335.72 143.50 329.24
  Q 143.92 328.00 144.33 329.24
  C 146.09 334.52 149.86 337.36 153.65 341.14
  A 1.32 1.19 24.5 0 1 154.02 341.99
  C 154.15 346.07 151.19 352.65 146.10 348.68
  Z"
/>
<path fill="#fdfcfd" d="
  M 161.18 339.24
  Q 162.00 344.62 167.75 343.00
  Q 169.46 342.52 175.44 341.86
  A 1.21 0.84 -18.8 0 1 176.34 342.12
  Q 177.15 342.98 176.45 344.92
  Q 171.46 350.65 163.75 350.04
  C 159.67 348.45 156.01 342.27 161.18 339.24
  Z"
/>
<path fill="#7a8995" d="
  M 194.52 391.40
  C 201.71 404.46 215.98 416.77 231.70 407.93
  Q 234.33 406.45 231.36 405.93
  C 214.87 403.03 206.10 388.56 204.79 372.96
  A 0.46 0.45 -80.5 0 1 205.43 372.50
  C 220.15 379.04 233.00 378.10 248.84 374.00
  C 267.65 369.14 284.94 360.30 294.57 342.55
  Q 295.35 341.12 295.53 342.73
  C 296.89 354.94 287.82 364.10 278.53 370.54
  C 264.64 380.17 256.81 389.33 246.84 403.62
  Q 241.41 411.39 232.86 414.07
  C 212.99 420.31 195.43 412.29 191.02 391.12
  A 0.94 0.94 85.4 0 1 191.98 389.99
  Q 193.78 390.06 194.52 391.40
  Z"
/>
<path fill="#355d76" d="
  M 176.45 344.92
  Q 172.08 351.18 164.09 351.65
  Q 163.60 350.90 163.75 350.04
  Q 171.46 350.65 176.45 344.92
  Z"
/>
<path fill="#78818b" d="
  M 323.94 372.33
  Q 323.31 369.65 320.50 369.96
  Q 329.13 363.31 332.19 361.69
  Q 338.83 358.16 342.28 351.61
  Q 344.15 350.03 346.93 350.05
  A 0.49 0.48 -88.3 0 1 347.41 350.57
  Q 347.04 357.66 344.40 363.69
  Q 343.66 365.40 341.86 365.90
  Q 332.84 368.41 323.94 372.33
  Z"
/>
<path fill="#7bb2ca" d="
  M 342.28 351.61
  Q 338.83 358.16 332.19 361.69
  Q 329.13 363.31 320.50 369.96
  C 294.33 387.28 274.07 405.09 265.00 436.21
  L 255.25 436.96
  C 268.16 394.21 301.10 365.85 342.28 351.61
  Z"
/>
<path fill="#777881" d="
  M 323.94 372.33
  Q 324.01 376.86 326.13 380.87
  C 328.94 386.14 329.28 385.45 334.95 384.62
  A 0.66 0.65 -14.8 0 1 335.65 385.02
  C 336.54 387.23 335.23 388.39 333.24 389.15
  C 317.33 395.22 300.84 398.06 293.74 416.00
  Q 290.82 423.39 290.00 431.29
  Q 277.75 435.00 265.00 436.21
  C 274.07 405.09 294.33 387.28 320.50 369.96
  Q 323.31 369.65 323.94 372.33
  Z"
/>
<path fill="#eaeff2" d="
  M 193.75 426.71
  L 188.20 424.67
  Q 186.92 416.52 187.50 408.74
  Q 187.59 407.50 188.20 408.58
  Q 192.90 417.01 193.75 426.71
  Z"
/>
</svg>
